<svg xmlns="http://www.w3.org/2000/svg" width="900" height="480" viewBox="0 0 900 480" version="1.1">
	<path d="M 396.500 1.616 C 361.061 7.977, 335.479 23.601, 320.338 48.131 L 316.753 53.939 311.127 49.510 C 308.032 47.074, 300.565 40.562, 294.533 35.040 C 288.502 29.518, 282.712 25, 281.668 25 C 279.216 25, 273.188 31.622, 268.571 39.387 C 254.296 63.394, 260.476 87.056, 285.376 103.729 C 289.294 106.353, 292.769 108.865, 293.097 109.312 C 293.738 110.182, 296.473 141.214, 298.006 165 C 298.520 172.975, 299.487 197.096, 300.154 218.603 C 301.292 255.286, 301.259 257.935, 299.613 261.404 C 298.647 263.438, 297.606 266.654, 297.298 268.551 L 296.738 272 290.619 272.017 C 278.316 272.052, 263.762 276.507, 255.539 282.756 C 247.612 288.779, 245.318 292.902, 242.611 306 L 240.233 317.500 237.367 317.161 C 235.790 316.975, 230.900 316.750, 226.500 316.661 C 219.449 316.519, 217.956 316.820, 213.916 319.195 C 208.576 322.334, 202.637 328.596, 200.249 333.605 C 198.474 337.326, 198.602 337.312, 191.500 334.610 C 186.269 332.619, 179.493 332.613, 173.684 334.592 C 168.496 336.360, 159.739 343.671, 157.406 348.181 C 156.201 350.513, 155.459 350.963, 153.731 350.415 C 138.751 345.660, 125.694 362.544, 131.539 379.110 C 135.117 389.252, 145.215 394.530, 154.375 391.047 C 156.723 390.155, 157.102 390.491, 160.401 396.389 C 166.489 407.276, 174.643 412.331, 186 412.259 C 190.765 412.229, 198.852 410.828, 200.641 409.722 C 201.229 409.359, 202.742 410.161, 204.005 411.506 C 206.828 414.511, 214.197 417.443, 217.050 416.697 C 218.211 416.394, 220.981 416.788, 223.206 417.573 C 227.863 419.216, 236.690 419.448, 240.430 418.027 C 242.512 417.235, 243.670 417.515, 246.634 419.527 C 252.834 423.734, 262.403 422.632, 267.374 417.139 L 269.244 415.073 275.056 420.976 C 284.071 430.133, 298.878 436.392, 316.576 438.527 C 320.772 439.034, 321.944 439.635, 323.339 441.996 C 328.660 451.005, 343.329 451.754, 349.935 443.355 L 352.047 440.671 355.023 443.522 C 356.661 445.091, 358 446.983, 358 447.727 C 358 450.345, 361.921 456.724, 365.420 459.795 C 370.724 464.453, 376.380 464.933, 384.550 461.418 C 385.128 461.170, 387.378 462.480, 389.550 464.330 C 394.413 468.472, 402.256 471.171, 408.668 470.909 C 412.048 470.770, 414.552 471.336, 417 472.791 C 418.925 473.936, 423.954 476.026, 428.176 477.436 C 435.441 479.863, 436.969 479.999, 456.676 479.987 C 476.892 479.974, 477.733 479.892, 485.500 477.174 C 494.309 474.092, 499.980 470.820, 506.112 465.280 L 510.151 461.631 515.886 462.816 C 519.040 463.467, 524.033 464, 526.981 464 C 530.532 464, 532.950 464.550, 534.143 465.629 C 539.154 470.164, 558.702 470.404, 565.634 466.015 C 568.467 464.222, 571 459.799, 571 456.647 C 571 454.131, 571.040 454.119, 574.468 455.551 C 581.526 458.500, 588.382 456.746, 593.766 450.614 C 595.545 448.588, 597 446.496, 597 445.965 C 597 445.434, 598.943 445, 601.318 445 C 603.694 445, 607.997 444.299, 610.882 443.442 C 616.018 441.917, 616.235 441.938, 621.260 444.442 C 627.168 447.386, 630.567 447.625, 635.746 445.462 C 640.505 443.473, 642.768 441.372, 645.127 436.750 C 646.764 433.543, 647.526 433, 650.393 433 C 652.237 433, 655.894 433.950, 658.520 435.112 C 666.712 438.735, 675.104 435.947, 680.178 427.916 C 682.381 424.431, 682.578 424.343, 685.483 425.553 C 696.946 430.327, 711.399 426.693, 720 416.874 L 722.500 414.020 729.357 415.105 C 735.012 416, 737.468 415.900, 743.357 414.536 C 747.286 413.626, 752.455 412.449, 754.845 411.919 C 766.346 409.371, 773.220 396.185, 768.618 385.500 C 767.794 383.587, 767.496 380.058, 767.797 375.759 C 768.227 369.603, 767.974 368.436, 764.884 362.310 C 763.023 358.621, 759.884 354.004, 757.908 352.051 C 754.999 349.175, 754.202 347.516, 753.714 343.318 C 752.205 330.358, 742.116 321.089, 727.671 319.391 L 722 318.725 722 313.559 C 722 301.105, 709.962 289.089, 697.417 289.022 C 693.895 289.003, 692.910 288.471, 690.239 285.148 C 685.963 279.826, 681.022 277.647, 674.626 278.262 C 669.588 278.746, 669.479 278.696, 664.299 273.516 C 659.507 268.724, 649.051 262.309, 643.069 260.490 C 641.732 260.083, 638.850 258.455, 636.665 256.872 C 634.480 255.289, 631.046 253.551, 629.035 253.009 C 625.858 252.154, 625.081 251.308, 623.113 246.560 C 621.834 243.474, 619.197 239.604, 617.055 237.669 C 612.274 233.349, 603.442 230, 596.833 230 C 593.934 230, 588.794 228.937, 584.896 227.530 C 581.130 226.172, 575.155 224.764, 571.619 224.402 L 565.188 223.743 563.927 219.238 C 563.183 216.581, 561.083 213.069, 558.809 210.679 L 554.954 206.626 556.016 184.563 C 556.950 165.191, 558.455 143.414, 560.628 117.833 C 560.986 113.616, 561.554 109.791, 561.890 109.333 C 562.225 108.875, 565.706 106.353, 569.624 103.729 C 589.905 90.149, 598.035 71.612, 592.165 52.336 C 588.663 40.833, 577.948 25, 573.666 25 C 572.277 25, 567.417 28.691, 560.483 35.012 C 554.442 40.518, 546.954 47.041, 543.842 49.506 L 538.184 53.988 535.186 48.744 C 521.555 24.898, 492.350 7.120, 457.530 1.473 C 445.501 -0.478, 407.671 -0.390, 396.500 1.616 M 275.513 53.144 C 270.598 63.703, 272.734 75.743, 281.253 85.500 C 285.387 90.235, 294.646 97.127, 293.756 94.807 C 293 92.835, 295.753 88.730, 297.223 89.638 C 297.887 90.048, 298.020 89.842, 297.565 89.106 C 297.076 88.314, 296.425 88.233, 295.661 88.868 C 294.789 89.594, 294.500 86.429, 294.500 76.167 C 294.500 65.353, 294.224 62.557, 293.176 62.775 C 292.447 62.926, 292.124 62.608, 292.458 62.068 C 292.791 61.529, 293.837 61.327, 294.782 61.619 C 296.327 62.098, 296.322 62.037, 294.729 61.014 C 293.755 60.389, 293.219 59.455, 293.538 58.939 C 293.857 58.422, 293.566 58, 292.892 58 C 292.218 58, 291.953 57.713, 292.304 57.363 C 293.683 55.984, 288.938 51.298, 284.953 50.104 C 282.664 49.418, 280.165 48.617, 279.399 48.323 C 278.461 47.963, 277.191 49.539, 275.513 53.144 M 573.618 50.895 C 569.062 52.480, 563.550 57.462, 564.554 59.087 C 564.793 59.474, 564.288 60.059, 563.431 60.388 C 562.574 60.717, 562.183 61.487, 562.562 62.100 C 563.045 62.882, 563.506 62.809, 564.110 61.857 C 564.583 61.111, 564.976 60.972, 564.985 61.550 C 564.993 62.127, 564.503 63.097, 563.895 63.705 C 563.287 64.313, 562.557 69.825, 562.272 75.955 C 561.805 86.021, 561.936 87.241, 563.627 88.553 C 565.026 89.637, 565.090 89.863, 563.881 89.446 C 562.798 89.072, 562.078 89.593, 561.704 91.022 C 561.276 92.661, 561.508 93.019, 562.699 92.562 C 564.075 92.034, 564.069 92.246, 562.643 94.422 C 561.112 96.759, 561.131 96.860, 563.037 96.493 C 567.620 95.610, 578.276 85.301, 581.854 78.287 C 586.025 70.109, 585.250 56.961, 580.257 51.217 C 578.549 49.253, 578.364 49.244, 573.618 50.895 M 378.050 58.189 C 350.656 61.305, 330.608 93.938, 336.390 126 C 340.688 149.832, 357.305 167.682, 378.260 170.978 C 385.375 172.097, 388.916 171.216, 391.940 167.572 C 392.652 166.715, 395.550 164.688, 398.381 163.068 C 401.316 161.389, 404.882 158.203, 406.678 155.654 C 410.209 150.646, 416.950 146.248, 423.276 144.827 C 433.149 142.608, 444.848 147.549, 450.806 156.454 C 452.625 159.171, 456.225 162.879, 458.806 164.693 C 461.388 166.506, 464.625 168.890, 466 169.989 C 468.264 171.800, 469.114 171.892, 475 170.967 C 489.559 168.678, 503.060 158.320, 510.279 143.899 C 515.320 133.829, 517 126.480, 517 114.500 C 517 102.520, 515.320 95.171, 510.279 85.101 C 493.372 51.329, 451.880 48.393, 430.486 79.456 C 428.386 82.505, 426.579 85, 426.471 85 C 426.363 85, 423.918 81.831, 421.038 77.957 C 409.775 62.810, 395.426 56.212, 378.050 58.189 M 294.543 92.931 C 294.226 93.443, 294.350 94.098, 294.817 94.387 C 295.284 94.676, 295.667 94.257, 295.667 93.456 C 295.667 91.770, 295.351 91.623, 294.543 92.931 M 400.500 101.896 C 390.634 106.464, 386.558 116.221, 390.538 125.746 C 392.523 130.496, 394.627 132.767, 399.210 135.106 C 409.525 140.371, 422.773 134.149, 425.551 122.737 C 427.507 114.701, 422.680 105.577, 414.509 101.865 C 409.418 99.552, 405.543 99.561, 400.500 101.896 M 439.459 101.880 C 428.710 106.762, 425.058 119.383, 431.545 129.230 C 435.121 134.658, 440.927 137.318, 448.074 136.801 C 468.151 135.349, 471.267 107.782, 452.101 101.172 C 447.405 99.553, 444.184 99.733, 439.459 101.880 M 399.582 110.316 C 396.019 112.922, 400.013 118.741, 403.750 116.388 C 406.135 114.886, 406.428 112.570, 404.479 110.621 C 402.515 108.658, 401.903 108.620, 399.582 110.316 M 438.521 110.621 C 436.572 112.570, 436.865 114.886, 439.250 116.388 C 442.987 118.741, 446.981 112.922, 443.418 110.316 C 441.097 108.620, 440.485 108.658, 438.521 110.621 M 395.500 170.981 C 392.750 173.151, 389.174 176.892, 387.554 179.293 C 385.125 182.893, 383.509 184.053, 378.339 185.907 C 361.355 191.998, 352.912 202.022, 357.372 210.800 C 358.220 212.468, 358.438 214.265, 357.942 215.500 C 356.635 218.760, 356.894 226.810, 358.424 230.472 C 361.804 238.561, 373.184 247.524, 386.381 252.491 L 393 254.983 393 242.625 L 393 230.268 386.750 228.004 C 380.201 225.631, 365 218.306, 365 217.523 C 365 216.228, 368.489 210, 369.214 210 C 369.678 210, 372.780 211.374, 376.107 213.054 C 384.544 217.313, 401.076 222.688, 410 224.075 C 420.592 225.720, 440.533 224.729, 450.290 222.072 C 460.185 219.378, 473.523 213.598, 482.451 208.134 L 489.401 203.880 491.184 206.190 C 494.046 209.897, 494.377 212, 492.341 213.530 C 489.301 215.814, 467.780 226.676, 463.750 227.960 L 460 229.155 460 243.097 L 460 257.038 462.750 256.390 C 467.812 255.196, 480.447 250.036, 485.500 247.098 C 500.531 238.358, 507.043 226.218, 502.513 215.377 C 501.466 212.872, 501.319 211.273, 502.013 209.975 C 506.722 201.178, 495.949 190.378, 476.500 184.398 C 471.396 182.829, 469.553 181.541, 464.156 175.777 C 460.667 172.049, 457.456 169, 457.020 169 C 456.584 169, 455.914 171.137, 455.531 173.750 C 454.038 183.935, 447.938 192.370, 439.304 196.190 C 433.917 198.573, 423.760 198.762, 418.529 196.577 C 408.634 192.442, 401.966 182.951, 401.662 172.569 C 401.573 169.515, 401.275 167.020, 401 167.025 C 400.725 167.030, 398.250 168.810, 395.500 170.981 M 446 232.566 C 442.425 233.281, 437.363 234.148, 434.750 234.494 L 430 235.123 430 253.561 L 430 272 442 272 L 454 272 454 251.500 C 454 240.225, 453.663 231.060, 453.250 231.133 C 452.837 231.207, 449.575 231.852, 446 232.566 M 399 252.383 L 399 273 411.500 273 L 424 273 424 254.141 L 424 235.282 414.250 234.113 C 408.887 233.469, 403.262 232.678, 401.750 232.355 L 399 231.767 399 252.383 M 348.365 240.520 C 340.261 249.687, 334.893 257.623, 328.888 269.314 C 324.155 278.527, 323.902 279.366, 325.576 280.303 C 329.597 282.553, 336.027 289.424, 338.080 293.666 C 339.876 297.376, 340.168 299.320, 339.736 304.705 C 339.243 310.847, 339.401 311.502, 342.355 315.559 C 344.085 317.933, 345.771 319.904, 346.103 319.938 C 346.435 319.972, 346.983 316.738, 347.321 312.750 C 348.727 296.178, 354.481 275.315, 362.131 259.054 L 367.045 248.609 362.168 243.554 C 359.486 240.774, 356.602 237.462, 355.761 236.192 L 354.231 233.885 348.365 240.520 M 595.700 247.728 C 595.371 252.002, 594.291 258.200, 593.300 261.500 C 592.045 265.682, 591.588 269.970, 591.789 275.655 L 592.078 283.810 597.289 287.373 C 600.155 289.332, 604.254 291.659, 606.399 292.543 L 610.298 294.151 609.738 281.826 C 608.816 261.525, 604.181 244.953, 598.400 241.287 C 596.347 239.985, 596.286 240.131, 595.700 247.728 M 576.511 248.750 C 575.513 256.498, 572.153 266.048, 567.882 273.278 L 563.877 280.057 567.008 284.010 C 572.831 291.362, 583.984 299.354, 585.831 297.499 C 586.199 297.130, 586.500 289.104, 586.500 279.664 C 586.500 261.199, 584.861 251.635, 580.814 246.490 C 578.019 242.938, 577.204 243.365, 576.511 248.750 M 558.548 251.665 C 555.068 258.313, 547.781 266.522, 540.837 271.619 C 536.253 274.984, 535.864 275.581, 536.406 278.404 C 537.342 283.274, 543.571 295.219, 546.773 298.285 L 549.682 301.069 554.390 290.381 C 562.951 270.946, 566.186 254.560, 562.701 248.290 C 561.526 246.175, 561.346 246.322, 558.548 251.665 M 256.199 288.762 C 254.309 289.399, 250.565 295.729, 248.663 301.500 C 246.359 308.494, 244.013 325.026, 244.006 334.317 C 244 341.955, 244.052 342.120, 246.250 341.473 C 249.196 340.607, 258.760 334.917, 260.494 333 C 262.587 330.687, 262.659 315.719, 260.610 308.867 C 259.684 305.769, 258.605 299.879, 258.213 295.778 C 257.691 290.321, 257.151 288.441, 256.199 288.762 M 274.876 293.050 C 272.469 294.397, 269.143 302.953, 268.027 310.668 C 266.924 318.298, 266.693 337.507, 267.635 343.207 L 268.248 346.914 272.329 344.832 C 276.496 342.706, 287.452 332.893, 289.104 329.807 C 289.772 328.558, 289.228 326.853, 287.085 323.473 C 282.872 316.829, 279.225 307.171, 277.975 299.341 C 277.379 295.610, 276.799 292.466, 276.687 292.354 C 276.575 292.242, 275.760 292.555, 274.876 293.050 M 290.905 297.177 C 289.110 300.532, 290.431 314.314, 293.355 322.729 C 297.442 334.493, 304.172 349.109, 305.323 348.726 C 307.578 347.974, 314.071 337.200, 316.214 330.654 L 318.456 323.807 315.478 321.690 C 308.700 316.872, 299.043 306.558, 296.048 300.939 C 294.307 297.673, 292.700 295, 292.477 295 C 292.253 295, 291.546 295.980, 290.905 297.177" stroke="none" fill="black" fill-rule="evenodd"/>
</svg>